<svg xmlns="http://www.w3.org/2000/svg" viewBox="0 0 763.14 221.75"><defs><style>.cls-1{fill:#fff;}</style></defs><title>Bird Resort logo lite</title><g id="Layer_2" data-name="Layer 2"><g id="Layer_1-2" data-name="Layer 1"><path class="cls-1" d="M6.42,77.54c7.31,9,12.36,12.73,23.87,17.39.53-1.17-.5-1.35-1.11-1.75C25.82,91,22.37,88.87,19.1,86.54,7.09,78,1.24,66,.22,51.5a89.31,89.31,0,0,1,.1-13.83C6.56,51.23,14.89,61.89,27.81,69.59c-.87-2.39-2.28-3.26-3.46-4.29C14.56,56.76,7,46.79,4.16,33.79,1.81,23,3.77,12.65,7.2,2.36c1.2.72,1.22,2.06,1.57,3.14C14.7,23.63,25.4,38.37,40.3,50.15a36.4,36.4,0,0,0,4.87,3.28C69.66,67.06,86.89,86.82,96,113.48c.5,1.46,1.06,2.91,1.64,4.34,7.61,18.68,25.94,24.87,43.32,14.47,9.75-5.83,20.32-7.61,31.64-7.39-.61,1.32-1.79,1.28-2.66,1.62A140.07,140.07,0,0,0,149.09,136a44.75,44.75,0,0,0-12.92,11,15,15,0,0,0-3,5.06c-4,14.21-13.05,24.92-23.65,34.55-14,12.76-30.08,22.58-47.25,30.4-16.73,7.62-32.78,6.38-47.17-5.94-4-3.41-7.22-7.41-8.3-12.75a14.47,14.47,0,0,1,10-16.69,6.36,6.36,0,0,1,4.24,0c3.75,1.45,4.09,2.66,1.23,5.25-4.14,3.73-5.29,8.1-3.32,13.57,2.48-3.69,2.08-9.85,9-9.45-.88,2.31-2.45,4.14-2.82,6.43-.19,1.19-.74,2.8.26,3.48s1.84-.91,2.79-1.41a9,9,0,0,0,1-.75c.53,1.12,0,2-.19,2.8-1.3,5.84,1.31,10.47,7,12.33a18.43,18.43,0,0,0,9.19.68c11.69-2.2,22.06-7,29.84-16.29,9.17-10.95,16.52-23.22,25-34.69,1.34-1.8.13-2-1.28-2.18a50.92,50.92,0,0,1-14.24-4.07c-5.16-2.44-9.18-6.17-12.84-11.08,7-.61,13.7-.43,20.22-3-1.87-1.13-3.79-1-5.58-1.32s-3.66-.69-5.5-.91a66.83,66.83,0,0,1-29.35-10.92C38.7,121.68,26.13,113,17,100.25,12.66,94.18,8.9,87.79,6.81,80.55c-.28-1-.86-1.91-.32-3Z"/><path class="cls-1" d="M147.75,52.37c1.8,4.68,1,8.86.63,13.66a48.52,48.52,0,0,0,11.93-27.62c2.56,6.26,2.95,12.82,3.12,20.3,7-11.58,11.69-23.06,13.43-36,2.39,2.41,1.43,5.43,2.56,7.9,1.27-1.07,1.7-2.48,2.37-3.71,4.15-7.73,8.25-15.49,12.39-23.22A14.69,14.69,0,0,1,196.05.88c1-1.18,2-1.33,2.59.53,7.44,22.36,10.94,45,4.14,68.17a107.76,107.76,0,0,1-26.57,44.88c-5.77,6-6.87,5.81-12.39-.39-7.71-8.66-14.3-9.4-23.87-2.74a24,24,0,0,1-4.58,2.57c-7,2.86-13.53-.2-15.64-7.45-2.37-8.19-.5-15.76,4.17-22.68a66,66,0,0,1,5.69-6.94,136.57,136.57,0,0,0,16.34-21.78C146.39,54.27,147,53.54,147.75,52.37Z"/><path class="cls-1" d="M324.29,99c1.61-.29,2.79-.53,4-.72q8.79-1.36,8.45-10.57c-.21-5.76-3.54-9.17-9.29-9.53-6-.37-6-.37-6,5.53,0,10.55.08,21.09.06,31.64,0,3,.56,5.59,3.92,6.69H308.08c3.8-1.16,3.85-4.25,3.84-7.45,0-10.55-.06-21.09,0-31.64,0-3.31-.41-6.2-4.25-7.46,9.74.09,19.39-1,29,.52,5,.83,8.91,3.64,10.89,9.29,4.38-8.94,12-9.92,20.15-10a190,190,0,0,1,19.82.45c13.07,1.28,20.92,10.13,20.8,23.54-.12,12.9-8.23,21.55-21.17,22.55-2.06.16-4.12.26-6.19.27-7.12,0-14.24,0-21.65-.14,4.29-1.09,4.2-4.32,4.18-7.61,0-10.75,0-21.51,0-32.26,0-4,0-4-3.87-3.35-4.74.76-8.6,2.87-11,7.14a7.7,7.7,0,0,0-1.11,2.85c-.74,7-4.71,10.89-11.9,12.14,6.69,4.92,10.86,11.63,15.75,17.71,6.38,7.95,13.86,13.88,24.52,14.53.27,0,.51.25,1,.49-2.24,1.75-4.74,2.19-7.27,2.5-10.27,1.28-18.76-2.14-25.22-10.14-3.37-4.17-6.38-8.65-9.36-13.11A143,143,0,0,0,324.29,99Zm49.23-.25v15.5c0,5.31,0,5.32,5.44,5.26,1.34,0,2.68-.12,4-.12,5.46,0,9.06-2.91,11.63-7.43,2.38-4.18,2.94-8.82,3-13.46.22-13.85-6.29-20.38-20-20.37a11.44,11.44,0,0,1-1.55,0c-2.08-.27-2.63.68-2.59,2.66C373.59,86.79,373.52,92.78,373.52,98.77Z"/><path class="cls-1" d="M672.59,75.56c8.92.09,17.71-.73,26.47.26,9.39,1.07,14.36,7.72,11.92,16.05-1.59,5.38-5.54,8.17-11.38,9,7.29,5.57,11.89,13,17.44,19.58,5.85,7,12.78,12,22.22,12.65a1.66,1.66,0,0,1,1.56.94,26.5,26.5,0,0,1-21.59.2,27.64,27.64,0,0,1-12.18-9.78c-5.95-8.41-11.66-17-17.52-25.54l2.18-.4c7.49-1.4,10.5-6,8.88-13.41-1.1-5.11-8.48-9-13.11-6.88-1,.45-.9,1.28-.9,2.08,0,12.29,0,24.59,0,36.88,0,2.06,1.25,3.33,3.16,4.83H673.3c3.22-2.18,3.28-4.83,3.26-7.64q-.1-16,0-31.93C676.59,79.34,676.19,76.68,672.59,75.56Z"/><path class="cls-1" d="M474.72,75.58c8.73.07,17.32-.68,25.88.17a18.39,18.39,0,0,1,3,.57c6.74,1.86,9.66,5.83,9.49,12.88-.13,5.63-3.94,9.92-10,11.32-.45.1-1-.09-1.33.47,6.29,5.31,10.8,12.15,16.11,18.29S529,131,537.43,132.62a37.06,37.06,0,0,1,5.12,1.07,22.38,22.38,0,0,1-13.2,2.62c-8.6-.71-15.31-5-20.26-11.79C503,116.2,497.38,107.58,491.47,99l3-.59c6.2-1.19,9.22-5.27,8.55-11.52-.58-5.43-4.5-8.69-10.5-8.72-4.33,0-4.34,0-4.34,4.36q0,16.13,0,32.25c0,2.62,0,5.26,3.65,7.14H474.45c3.94-1.14,4.07-4,4.06-7-.06-10.86-.09-21.71,0-32.57C478.55,79.3,478,76.83,474.72,75.58Z"/><path class="cls-1" d="M232.2,75.39c6.37,0,12.75-.09,19.12,0a19.37,19.37,0,0,1,5.44,1.11c9.7,3.16,11.78,11.65,4.62,18.88.53,1.19,1.75.81,2.64,1.08,4.91,1.48,8,4.72,9,9.7a11.79,11.79,0,0,1-4.8,12.28c-5.86,4.49-12.78,4.88-19.76,4.71a31.85,31.85,0,0,1-5.81-.8c-10.8-2.35-16-9.44-15.25-20.88.91,1.19.83,2.42,1.08,3.54.9,4.13,2.56,7.83,6,10.55,1.3,1,2,.91,2-.9q0-17.19,0-34.38C236.38,77.59,234.45,76.44,232.2,75.39Zm17.16,21.3c5.14-3.16,6.84-7.6,5.24-13.16-.88-3-3-4.53-6-5.16-1.48-.32-2.39,0-2.3,1.79s0,3.92,0,5.89q0,15.65,0,31.28c0,1.11-.5,2.41,1.55,2.68,6.55.86,12.31-3,13.55-9.42,1.31-6.73-1.91-11.61-8.81-13.31C251.63,97,250.55,96.9,249.36,96.69Z"/><path class="cls-1" d="M625.31,76.13c-5.84,8.14-6.74,17.19-5.46,26.67a22.83,22.83,0,0,0,4.48,11.07c7.3,9.5,21.58,9.13,27.88-1.05,5.61-9,5.35-18.68.91-28.13a13.52,13.52,0,0,0-10.4-7.57c-8.07-1.37-14.75,5.1-14,13.42-3-7.38,2.07-15,10.6-16,12.6-1.47,24.44,6.37,26.93,17.83,2.89,13.26-3.3,24.84-16.22,28.81-12,3.68-23.77,3.09-33.93-5.48-7.39-6.23-8.66-14.58-6.74-23.43C611.18,83.8,617.18,78.87,625.31,76.13Z"/><path class="cls-1" d="M597.47,83.06c-3.32-5.38-9-7.36-14.36-5.32-5,1.91-6.06,7.46-1.8,10.63,4,3,8.23,5.51,12.35,8.26a47,47,0,0,1,4.54,3.21c9.39,8.09,7.72,21.41-3.4,26.88a22.09,22.09,0,0,1-19.47.43c-9.13-4.11-11.67-15.46-5-24-.74,1.93-1.29,3.23-1.73,4.56a13.59,13.59,0,0,0,5.61,15.66c5.7,3.61,14,3.33,18.27-.62a9.51,9.51,0,0,0,2-11.09,15.64,15.64,0,0,0-5.64-6c-4.12-2.76-8.31-5.41-12.35-8.26a12.37,12.37,0,0,1-4.89-14.47c1.59-5,6.29-8.27,12.18-8.24,3.92,0,7.84.3,11.76.29,2,0,2.79.67,2.44,2.72C597.69,79.3,597.65,81,597.47,83.06Z"/><path class="cls-1" d="M415.07,107.7c-.57,9.69,2.3,14.83,9.6,17.37a15.07,15.07,0,0,0,12.31-.78c6-3.06,7.24-10.07,2.78-15.13a25.77,25.77,0,0,0-5-4.11c-4.11-2.78-8.29-5.46-12.26-8.43-4.51-3.37-5.77-8.05-4.06-13.54a12.15,12.15,0,0,1,11.09-8.48c4.66-.25,9.29.29,13.94.47,1.31.06,1.54.63,1.43,1.74-.2,2.15-.36,4.31-.73,6.6a8.9,8.9,0,0,0-5.77-5.72,12.46,12.46,0,0,0-8.2.06,6.26,6.26,0,0,0-4.58,5,5.3,5.3,0,0,0,2.56,5.57c3.83,2.63,7.73,5.16,11.59,7.74,1.38.92,2.79,1.78,4.1,2.79,5.42,4.15,8.44,9.58,7,16.44S444.69,126.36,438,128.2a22.55,22.55,0,0,1-15.76-1,14.91,14.91,0,0,1-8.27-18.3C414.11,108.43,414.17,107.87,415.07,107.7Z"/><path class="cls-1" d="M549,84.66c-2.35-5.73-4.47-7-9.75-6.63-1.45.1-2,.58-2,2,0,5.17.07,10.33,0,15.49,0,1.82.78,2.35,2.44,2.3,2.27-.07,4.54,0,6.81,0,3.79,0,6.71-1.14,7.85-5.24v12.91c-1.27-4.51-4.75-5.05-8.7-5-8.37,0-8.37-.06-8.37,8.35,0,2.69.08,5.38,0,8.06-.07,1.77.41,2.71,2.38,2.66,4.13-.08,8.26,0,12.39-.08s7.31-2.53,9.79-5.77a7.5,7.5,0,0,1,1.9-2c-.72,3.07-1.46,6.13-2.18,9.19-.27,1.19-1.14,1.33-2.13,1.32L525.62,122c-.16,0-.32-.21-.67-.46,2.68-1.71,2.6-4.35,2.58-7.06,0-10.53-.1-21.07,0-31.6,0-3.21-.2-6-3.69-7.5,5.3,0,10.61,0,15.92,0a24.44,24.44,0,0,0,6.77-.59c2-.57,2.57.15,2.46,2.11C548.89,79.24,549,81.61,549,84.66Z"/><path class="cls-1" d="M763.12,83.29c-1.5-4.55-4.93-5.5-9.12-5.37-8.53.28-7.55-1.72-7.51,7.44,0,9.92.12,19.83.15,29.75,0,3,.22,5.87,3.79,7H733.25c3.83-1.39,3.56-4.62,3.55-7.82,0-11-.1-22.11,0-33.17,0-2.62-.8-3.45-3.35-3.27-3,.22-6,.07-9,.17-8.64.27-11.08,3.34-9.33,11.67A6.94,6.94,0,0,1,714,79.6c2.55-3.12,6-4.24,9.89-4.24h28.51a32.66,32.66,0,0,0,8-.6c2.15-.54,2.79.35,2.73,2.34S763.12,81.23,763.12,83.29Z"/><path class="cls-1" d="M300.62,122.09H282.71c4.1-1.5,3.57-5,3.57-8.35,0-10.84-.07-21.68.05-32.52,0-2.41-.64-3.45-3.13-3.09-1.32.19-2.69.05-4,.22-2.38.3-4.88.6-5.62,3.47s.91,4.56,4,5.72c-3.14.75-5.15,0-6.34-2.17a5.37,5.37,0,0,1,.6-6.61,9.54,9.54,0,0,1,6.61-3c7.31-.53,14.61-1,22.2-1.39C295.46,76.2,296,80.49,296,84.53c0,10,.05,20,0,30.05C295.93,117.73,296.19,120.57,300.62,122.09Z"/><path class="cls-1" d="M407.65,159.22c0,4.83,0,9.66,0,14.48,0,1.64-.12,2.72-2.26,2.74s-2.6-.84-2.58-2.77c.08-7.13,0-14.26.06-21.38,0-1.11-.6-2.71,1.31-2.95,1.69-.21,3.46-.71,4.58,1.4,1.89,3.56,4.05,7,5.91,10.53,1.33,2.56,2.15,2,3.3-.1,1.81-3.36,3.9-6.57,5.62-10,1.12-2.21,2.83-2.08,4.7-1.83,2.3.31,1.49,2.16,1.5,3.43.07,6.92,0,13.84.06,20.76,0,1.74-.06,2.84-2.41,2.85s-2.64-1.05-2.6-3a125.45,125.45,0,0,0-.45-14.5c-1.59,2.77-3.15,5.56-4.77,8.31-.8,1.37-1.2,3.3-3.28,3.3s-2.5-1.92-3.3-3.3c-1.59-2.73-3.12-5.5-4.67-8.26Z"/><path class="cls-1" d="M503.79,166.91c0-5.15,0-10,0-14.83,0-1.56,0-2.89,2.11-3,2.36-.07,2.31,1.47,2.3,3.11,0,7,0,14-.12,21.07,0,1,.92,2.78-1.11,2.94-1.65.13-3.45.59-4.63-1.46-2.83-4.92-5.82-9.74-8.78-14.59-.51-.82-.74-1.91-2.19-2.46,0,5.39-.13,10.59.06,15.78.09,2.46-.81,3-3,2.84-1.27-.11-1.85-.38-1.84-1.77,0-7.74,0-15.49,0-23.23,0-1,.19-2,1.42-1.95,1.91.07,4.09-1.11,5.51,1.41,2.54,4.49,5.24,8.89,7.91,13.31C502,165.05,502.27,166.2,503.79,166.91Z"/><path class="cls-1" d="M562.16,162.34c-.11,8.7-6,14.73-14.23,14.61s-14.09-6.4-14-14.67c.12-7.48,6.17-13.71,13.23-13.62C556.39,148.77,562.25,154.13,562.16,162.34Zm-4.87.62c.08-5.6-3.59-9.59-9-9.74a9.12,9.12,0,0,0-9.59,8.84c-.09,5.89,3.79,10.09,9.36,10.11A9,9,0,0,0,557.29,163Z"/><path class="cls-1" d="M451.16,162.19c3.95,3,5,5.32,3.9,8.66s-4.16,5.38-8.47,5.45c-3,0-6,0-9,.09-1.45,0-2-.47-2-2,0-7.63,0-15.27,0-22.91,0-1.8.73-2.32,2.43-2.25,2.79.12,5.58,0,8.36.06,3.34.06,6.1,1.19,7.48,4.47C455.1,156.71,454.33,159.06,451.16,162.19Zm-6.77,9.75c1-.11,2.09-.18,3.19-.39a3.24,3.24,0,0,0,2.86-3.74,3.12,3.12,0,0,0-2.72-2.95c-2.29-.43-5-1.23-6.76.34-1.26,1.14-.65,3.77-.21,5.62S443,171.56,444.39,171.94ZM444,160.22h1.47c2.08.07,3.66-.67,4.11-2.86a2.85,2.85,0,0,0-2.22-3.52c-2.14-.55-4.78-1.3-6.38.38-1.09,1.15-.72,3.63-.09,5.32C441.36,160.91,443.07,160,444,160.22Z"/><path class="cls-1" d="M369.85,163c0,3.71-.11,7.44,0,11.15.09,2.2-1.1,2.19-2.71,2.24s-2.43-.46-2.34-2.27c.12-2.17-.16-4.35,0-6.51s-.79-2.93-2.89-2.76c-1.53.13-3.09,0-4.64,0-4.25,0-4.25,0-4.26,4.41,0,1.44-.09,2.9,0,4.33.18,2-.46,2.78-2.56,2.79s-2.21-1.2-2.21-2.78q0-11,0-22c0-1.54.21-2.55,2.14-2.57s2.72.61,2.57,2.49a1.63,1.63,0,0,0,0,.31c.41,9.08.53,9.15,9.86,8.24,1.44-.14,2-.66,2-2.09-.06-2.27.09-4.55-.05-6.81-.12-2,1-2.12,2.52-2.12s2.71.2,2.49,2.15a1.61,1.61,0,0,0,0,.31Z"/><path class="cls-1" d="M387,170c-1.36-.06-2.29-.05-3.21-.16-2-.23-3,.55-3.56,2.51-.36,1.34-.44,3.15-1.81,3.77a4.78,4.78,0,0,1-4.46-.07c-.91-.65.26-2,.63-3,2.59-7.05,5.3-14.06,7.83-21.13.76-2.1,1.95-2.76,4.13-2.74a3.55,3.55,0,0,1,3.81,2.76c2.61,7.15,5.41,14.24,8,21.39.32.89,1.87,2.51-.09,2.94-1.52.33-3.78,1.18-4.85-1.25a2.57,2.57,0,0,1-.2-.59C392.62,170.41,390.39,169,387,170Zm-.26-14.61-.76.06c-.64,1.83-1.29,3.66-1.91,5.5-1.5,4.49-1.49,4.49,3.32,4.22l.93-.06c1,0,1.49-.42,1.1-1.56C388.45,160.84,387.59,158.1,386.7,155.38Z"/><path class="cls-1" d="M470.18,149.22c2.43-.57,3.16.94,3.81,2.73,2.62,7.17,5.32,14.3,7.9,21.48.31.86,1.67,2.33.05,2.76-1.45.38-4.17,1.18-4.54-1.09-.92-5.59-4.59-5.38-8.83-5.37-3,0-4.57.88-5.18,3.82-.27,1.28-.47,2.81-2.59,2.88-3.5.11-3.89-.22-2.66-3.47,2.62-7,5.33-13.86,7.88-20.83C466.8,150,467.85,148.7,470.18,149.22Zm-.08,6.2c-1.38,1.62-1.5,3.64-2.19,5.41-1.78,4.58-1.67,4.67,3.29,4.4l.92,0c1.17,0,1.35-.6,1-1.61A43.71,43.71,0,0,0,470.1,155.42Z"/><path class="cls-1" d="M609,176.05c-5,.7-5.08.72-6.52-3.52-.66-1.94-1.63-3-3.79-2.71a11.84,11.84,0,0,1-3.09,0c-3.42-.48-5.68.39-6.34,4.26-.35,2.09-3.2,3-5.17,2.24-1.12-.46-.55-1.15-.32-1.75,3-7.92,6-15.82,8.92-23.74a2.57,2.57,0,0,1,2.91-1.73c1.43.06,3-.23,3.71,1.51C602.55,159.06,605.75,167.52,609,176.05Zm-12.62-21.44a29.79,29.79,0,0,0-2.82,7.26c-1.11,3.42-1.09,3.42,2.63,3.35.41,0,.82-.06,1.22-.05,1.56,0,2.31-.38,1.64-2.19C598.11,160.51,597.42,158,596.37,154.61Z"/><path class="cls-1" d="M571.35,165.15c0-2.68-.16-5.38,0-8.05s-.89-3.54-3.38-3.21a22.78,22.78,0,0,1-2.48,0c-1.56,0-1.87-1-1.91-2.22s.38-2.3,1.85-2.31q8.52,0,17,0c1.56,0,1.34,1.25,1.34,2.26s.2,2.18-1.37,2.26c-.41,0-.82,0-1.23,0-5.1.13-5.1.13-5.1,5.37,0,4.86,0,9.71,0,14.56,0,1.74-.43,2.63-2.44,2.59s-2.47-.79-2.4-2.61C571.44,170.94,571.35,168,571.35,165.15Z"/><path class="cls-1" d="M520,165c0-2.89-.1-5.78,0-8.66.09-1.95-.69-2.61-2.53-2.43-.92.09-1.86,0-2.78,0-1.74.16-2.4-.52-2.35-2.29.05-1.58.34-2.5,2.23-2.46,5.15.09,10.31.07,15.46,0,2,0,2.31,1,2.4,2.73.1,2.08-1.09,2-2.54,2-5.08.06-5.08.09-5.08,5.08s-.08,10.11,0,15.16c.05,1.91-.76,2.22-2.38,2.17s-2.61-.05-2.53-2.08C520.12,171.17,520,168.07,520,165Z"/><polygon class="cls-1" points="6.49 77.58 6.34 77.61 6.42 77.54 6.49 77.58"/></g></g></svg>